<svg data-v-423bf9ae="" xmlns="http://www.w3.org/2000/svg" viewBox="0 0 324.49542345672705 60" class="font"><!----><!----><!----><g data-v-423bf9ae="" id="7e7f6e86-71ad-4da4-8519-585c62f9e2dd" fill="#ffffff" transform="matrix(3.931848155293183,0,0,3.931848155293183,6.055046416114806,-7.706423011199902)"><path d="M2.03 14.18L2.03 4.93L2.03 4.93Q2.03 4.44 1.98 4.14L1.98 4.14L1.98 4.14Q1.93 3.84 1.79 3.66L1.79 3.66L1.79 3.66Q1.64 3.49 1.36 3.42L1.36 3.42L1.36 3.42Q1.08 3.36 0.63 3.33L0.63 3.33L0.63 2.80L4.89 2.80L4.89 3.33L4.89 3.33Q4.44 3.35 4.17 3.42L4.17 3.42L4.17 3.42Q3.89 3.49 3.75 3.67L3.75 3.67L3.75 3.67Q3.60 3.85 3.55 4.17L3.55 4.17L3.55 4.17Q3.50 4.49 3.50 5.03L3.50 5.03L3.50 13.61L3.50 13.61Q3.50 15.37 2.76 16.30L2.76 16.30L2.76 16.30Q2.02 17.22 0.59 17.22L0.59 17.22L0.59 17.22Q-0.38 17.22-0.96 16.85L-0.96 16.85L-0.96 16.85Q-1.54 16.48-1.54 15.86L-1.54 15.86L-1.54 15.86Q-1.54 15.50-1.35 15.31L-1.35 15.31L-1.35 15.31Q-1.16 15.12-0.83 15.12L-0.83 15.12L-0.83 15.12Q-0.56 15.12-0.40 15.25L-0.40 15.25L-0.40 15.25Q-0.24 15.39-0.03 15.78L-0.03 15.78L-0.03 15.78Q0.21 16.23 0.39 16.39L0.39 16.39L0.39 16.39Q0.56 16.55 0.84 16.55L0.84 16.55L0.84 16.55Q1.41 16.55 1.72 15.93L1.72 15.93L1.72 15.93Q2.03 15.32 2.03 14.18L2.03 14.18ZM9.94 10.54L9.94 9.44L9.94 9.44Q9.14 9.74 8.59 10.04L8.59 10.04L8.59 10.04Q8.04 10.33 7.70 10.63L7.70 10.63L7.70 10.63Q7.36 10.92 7.22 11.21L7.22 11.21L7.22 11.21Q7.07 11.51 7.07 11.82L7.07 11.82L7.07 11.82Q7.07 12.28 7.38 12.57L7.38 12.57L7.38 12.57Q7.69 12.87 8.19 12.87L8.19 12.87L8.19 12.87Q8.55 12.87 8.87 12.68L8.87 12.68L8.87 12.68Q9.18 12.50 9.42 12.19L9.42 12.19L9.42 12.19Q9.66 11.87 9.80 11.45L9.80 11.45L9.80 11.45Q9.94 11.02 9.94 10.54L9.94 10.54ZM7.92 9.72L9.94 8.83L9.94 8.26L9.94 8.26Q9.94 6.55 8.48 6.55L8.48 6.55L8.48 6.55Q8.25 6.55 8.08 6.59L8.08 6.59L8.08 6.59Q7.91 6.64 7.80 6.73L7.80 6.73L7.80 6.73Q7.69 6.83 7.60 7.01L7.60 7.01L7.60 7.01Q7.50 7.20 7.42 7.46L7.42 7.46L7.42 7.46Q7.27 7.87 7.12 8.00L7.12 8.00L7.12 8.00Q6.97 8.13 6.69 8.13L6.69 8.13L6.69 8.13Q5.99 8.13 5.99 7.43L5.99 7.43L5.99 7.43Q5.99 6.76 6.71 6.39L6.71 6.39L6.71 6.39Q7.42 6.02 8.74 6.02L8.74 6.02L8.74 6.02Q10.14 6.02 10.72 6.52L10.72 6.52L10.72 6.52Q11.31 7.01 11.31 8.20L11.31 8.20L11.31 11.34L11.31 11.34Q11.31 12.94 11.94 12.94L11.94 12.94L11.94 12.94Q12.14 12.94 12.32 12.89L12.32 12.89L12.32 12.89Q12.50 12.84 12.63 12.63L12.63 12.63L12.82 12.96L12.82 12.96Q12.66 13.29 12.21 13.50L12.21 13.50L12.21 13.50Q11.76 13.72 11.27 13.72L11.27 13.72L11.27 13.72Q10.65 13.72 10.35 13.33L10.35 13.33L10.35 13.33Q10.05 12.94 10.05 12.22L10.05 12.22L9.98 12.22L9.98 12.22Q9.62 12.91 8.97 13.31L8.97 13.31L8.97 13.31Q8.33 13.71 7.55 13.71L7.55 13.71L7.55 13.71Q6.66 13.71 6.16 13.26L6.16 13.26L6.16 13.26Q5.66 12.81 5.66 12.05L5.66 12.05L5.66 12.05Q5.66 11.72 5.78 11.41L5.78 11.41L5.78 11.41Q5.89 11.10 6.16 10.82L6.16 10.82L6.16 10.82Q6.43 10.54 6.86 10.27L6.86 10.27L6.86 10.27Q7.29 10.00 7.92 9.72L7.92 9.72ZM14.21 7.04L13.37 7.04L13.37 6.52L13.37 6.52Q14.11 6.09 14.53 5.66L14.53 5.66L14.53 5.66Q14.95 5.22 15.18 4.62L15.18 4.62L15.58 4.62L15.58 6.38L17.46 6.38L17.46 7.04L15.58 7.04L15.58 11.30L15.58 11.30Q15.58 11.79 15.63 12.12L15.63 12.12L15.63 12.12Q15.68 12.46 15.79 12.66L15.79 12.66L15.79 12.66Q15.90 12.87 16.09 12.95L16.09 12.95L16.09 12.95Q16.27 13.03 16.55 13.03L16.55 13.03L16.55 13.03Q16.90 13.03 17.14 12.89L17.14 12.89L17.14 12.89Q17.39 12.74 17.63 12.39L17.63 12.39L17.98 12.66L17.98 12.66Q17.78 13.17 17.30 13.45L17.30 13.45L17.30 13.45Q16.81 13.72 16.10 13.72L16.10 13.72L16.10 13.72Q15.18 13.72 14.69 13.28L14.69 13.28L14.69 13.28Q14.21 12.84 14.21 12.01L14.21 12.01L14.21 7.04ZM19.50 7.04L18.66 7.04L18.66 6.52L18.66 6.52Q19.40 6.09 19.82 5.66L19.82 5.66L19.82 5.66Q20.24 5.22 20.47 4.62L20.47 4.62L20.87 4.62L20.87 6.38L22.75 6.38L22.75 7.04L20.87 7.04L20.87 11.30L20.87 11.30Q20.87 11.79 20.92 12.12L20.92 12.12L20.92 12.12Q20.97 12.46 21.08 12.66L21.08 12.66L21.08 12.66Q21.20 12.87 21.38 12.95L21.38 12.95L21.38 12.95Q21.56 13.03 21.84 13.03L21.84 13.03L21.84 13.03Q22.19 13.03 22.44 12.89L22.44 12.89L22.44 12.89Q22.68 12.74 22.92 12.39L22.92 12.39L23.27 12.66L23.27 12.66Q23.07 13.17 22.59 13.45L22.59 13.45L22.59 13.45Q22.11 13.72 21.39 13.72L21.39 13.72L21.39 13.72Q20.47 13.72 19.98 13.28L19.98 13.28L19.98 13.28Q19.50 12.84 19.50 12.01L19.50 12.01L19.50 7.04ZM33.28 10.82L33.07 13.58L24.02 13.58L24.02 13.05L24.02 13.05Q24.51 13.03 24.81 12.96L24.81 12.96L24.81 12.96Q25.12 12.89 25.28 12.73L25.28 12.73L25.28 12.73Q25.45 12.56 25.51 12.25L25.51 12.25L25.51 12.25Q25.56 11.94 25.56 11.45L25.56 11.45L25.56 4.93L25.56 4.93Q25.56 4.44 25.51 4.14L25.51 4.14L25.51 4.14Q25.47 3.84 25.32 3.66L25.32 3.66L25.32 3.66Q25.17 3.49 24.89 3.42L24.89 3.42L24.89 3.42Q24.61 3.36 24.16 3.33L24.16 3.33L24.16 2.80L28.42 2.80L28.42 3.33L28.42 3.33Q27.97 3.35 27.70 3.42L27.70 3.42L27.70 3.42Q27.43 3.49 27.28 3.67L27.28 3.67L27.28 3.67Q27.13 3.85 27.08 4.17L27.08 4.17L27.08 4.17Q27.03 4.49 27.03 5.03L27.03 5.03L27.03 11.06L27.03 11.06Q27.03 11.65 27.15 12.02L27.15 12.02L27.15 12.02Q27.27 12.39 27.56 12.59L27.56 12.59L27.56 12.59Q27.85 12.80 28.32 12.87L28.32 12.87L28.32 12.87Q28.80 12.95 29.53 12.95L29.53 12.95L29.53 12.95Q30.32 12.95 30.87 12.86L30.87 12.86L30.87 12.86Q31.42 12.77 31.79 12.54L31.79 12.54L31.79 12.54Q32.16 12.31 32.38 11.89L32.38 11.89L32.38 11.89Q32.59 11.48 32.75 10.82L32.75 10.82L33.28 10.82ZM38.46 10.54L38.46 9.44L38.46 9.44Q37.66 9.74 37.11 10.04L37.11 10.04L37.11 10.04Q36.55 10.33 36.22 10.63L36.22 10.63L36.22 10.63Q35.88 10.92 35.73 11.21L35.73 11.21L35.73 11.21Q35.59 11.51 35.59 11.82L35.59 11.82L35.59 11.82Q35.59 12.28 35.90 12.57L35.90 12.57L35.90 12.57Q36.20 12.87 36.71 12.87L36.71 12.87L36.71 12.87Q37.07 12.87 37.39 12.68L37.39 12.68L37.39 12.68Q37.70 12.50 37.94 12.19L37.94 12.19L37.94 12.19Q38.18 11.87 38.32 11.45L38.32 11.45L38.32 11.45Q38.46 11.02 38.46 10.54L38.46 10.54ZM36.44 9.72L38.46 8.83L38.46 8.26L38.46 8.26Q38.46 6.55 37.00 6.55L37.00 6.55L37.00 6.55Q36.76 6.55 36.60 6.59L36.60 6.59L36.60 6.59Q36.43 6.64 36.32 6.73L36.32 6.73L36.32 6.73Q36.20 6.83 36.11 7.01L36.11 7.01L36.11 7.01Q36.02 7.20 35.94 7.46L35.94 7.46L35.94 7.46Q35.78 7.87 35.64 8.00L35.64 8.00L35.64 8.00Q35.49 8.13 35.21 8.13L35.21 8.13L35.21 8.13Q34.51 8.13 34.51 7.43L34.51 7.43L34.51 7.43Q34.51 6.76 35.22 6.39L35.22 6.39L35.22 6.39Q35.94 6.02 37.25 6.02L37.25 6.02L37.25 6.02Q38.65 6.02 39.24 6.52L39.24 6.52L39.24 6.52Q39.83 7.01 39.83 8.20L39.83 8.20L39.83 11.34L39.83 11.34Q39.83 12.94 40.46 12.94L40.46 12.94L40.46 12.94Q40.66 12.94 40.84 12.89L40.84 12.89L40.84 12.89Q41.02 12.84 41.15 12.63L41.15 12.63L41.34 12.96L41.34 12.96Q41.17 13.29 40.73 13.50L40.73 13.50L40.73 13.50Q40.28 13.72 39.79 13.72L39.79 13.72L39.79 13.72Q39.17 13.72 38.87 13.33L38.87 13.33L38.87 13.33Q38.57 12.94 38.57 12.22L38.57 12.22L38.50 12.22L38.50 12.22Q38.14 12.91 37.49 13.31L37.49 13.31L37.49 13.31Q36.85 13.71 36.06 13.71L36.06 13.71L36.06 13.71Q35.18 13.71 34.68 13.26L34.68 13.26L34.68 13.26Q34.17 12.81 34.17 12.05L34.17 12.05L34.17 12.05Q34.17 11.72 34.29 11.41L34.29 11.41L34.29 11.41Q34.41 11.10 34.68 10.82L34.68 10.82L34.68 10.82Q34.94 10.54 35.38 10.27L35.38 10.27L35.38 10.27Q35.81 10.00 36.44 9.72L36.44 9.72ZM44.25 1.96L44.25 11.40L44.25 11.40Q44.25 11.93 44.30 12.25L44.30 12.25L44.30 12.25Q44.34 12.57 44.47 12.75L44.47 12.75L44.47 12.75Q44.60 12.94 44.85 13.01L44.85 13.01L44.85 13.01Q45.09 13.08 45.50 13.09L45.50 13.09L45.50 13.58L41.64 13.58L41.64 13.09L41.64 13.09Q42.06 13.08 42.31 13.00L42.31 13.00L42.31 13.00Q42.56 12.92 42.71 12.75L42.71 12.75L42.71 12.75Q42.85 12.59 42.90 12.29L42.90 12.29L42.90 12.29Q42.95 11.98 42.95 11.49L42.95 11.49L42.95 5.46L42.95 5.46Q42.95 4.70 42.93 4.19L42.93 4.19L42.93 4.19Q42.91 3.68 42.87 3.50L42.87 3.50L42.87 3.50Q42.80 3.18 42.54 3.07L42.54 3.07L42.54 3.07Q42.28 2.95 41.61 2.95L41.61 2.95L41.61 2.48L44.25 1.96ZM46.82 12.81L46.82 12.81L46.82 12.81Q46.82 12.42 47.08 12.15L47.08 12.15L47.08 12.15Q47.35 11.89 47.73 11.89L47.73 11.89L47.73 11.89Q48.12 11.89 48.38 12.15L48.38 12.15L48.38 12.15Q48.65 12.42 48.65 12.81L48.65 12.81L48.65 12.81Q48.65 13.19 48.38 13.45L48.38 13.45L48.38 13.45Q48.12 13.72 47.73 13.72L47.73 13.72L47.73 13.72Q47.35 13.72 47.08 13.45L47.08 13.45L47.08 13.45Q46.82 13.19 46.82 12.81ZM56.25 12.01L56.67 12.42L56.67 12.42Q56.17 13.03 55.37 13.38L55.37 13.38L55.37 13.38Q54.57 13.72 53.65 13.72L53.65 13.72L53.65 13.72Q52.91 13.72 52.28 13.45L52.28 13.45L52.28 13.45Q51.66 13.17 51.21 12.68L51.21 12.68L51.21 12.68Q50.76 12.18 50.52 11.48L50.52 11.48L50.52 11.48Q50.27 10.78 50.27 9.93L50.27 9.93L50.27 9.93Q50.27 9.03 50.55 8.31L50.55 8.31L50.55 8.31Q50.83 7.59 51.34 7.08L51.34 7.08L51.34 7.08Q51.86 6.57 52.58 6.29L52.58 6.29L52.58 6.29Q53.30 6.02 54.17 6.02L54.17 6.02L54.17 6.02Q54.71 6.02 55.16 6.11L55.16 6.11L55.16 6.11Q55.61 6.20 55.94 6.36L55.94 6.36L55.94 6.36Q56.27 6.52 56.45 6.75L56.45 6.75L56.45 6.75Q56.63 6.99 56.63 7.25L56.63 7.25L56.63 7.25Q56.63 7.53 56.45 7.69L56.45 7.69L56.45 7.69Q56.27 7.84 55.94 7.84L55.94 7.84L55.94 7.84Q55.69 7.84 55.52 7.74L55.52 7.74L55.52 7.74Q55.36 7.63 55.09 7.27L55.09 7.27L55.09 7.27Q54.81 6.94 54.55 6.81L54.55 6.81L54.55 6.81Q54.29 6.68 53.89 6.68L53.89 6.68L53.89 6.68Q52.89 6.68 52.38 7.45L52.38 7.45L52.38 7.45Q51.87 8.22 51.87 9.72L51.87 9.72L51.87 9.72Q51.87 11.33 52.44 12.16L52.44 12.16L52.44 12.16Q53.00 12.99 54.10 12.99L54.10 12.99L54.10 12.99Q54.68 12.99 55.20 12.76L55.20 12.76L55.20 12.76Q55.72 12.53 56.25 12.01L56.25 12.01ZM61.64 6.02L61.64 6.02L61.64 6.02Q62.44 6.02 63.15 6.31L63.15 6.31L63.15 6.31Q63.87 6.59 64.41 7.10L64.41 7.10L64.41 7.10Q64.95 7.60 65.26 8.29L65.26 8.29L65.26 8.29Q65.58 8.99 65.58 9.81L65.58 9.81L65.58 9.81Q65.58 10.67 65.26 11.38L65.26 11.38L65.26 11.38Q64.95 12.10 64.41 12.61L64.41 12.61L64.41 12.61Q63.87 13.13 63.15 13.43L63.15 13.43L63.15 13.43Q62.44 13.72 61.64 13.72L61.64 13.72L61.64 13.72Q60.86 13.72 60.15 13.43L60.15 13.43L60.15 13.43Q59.44 13.15 58.91 12.63L58.91 12.63L58.91 12.63Q58.38 12.11 58.07 11.39L58.07 11.39L58.07 11.39Q57.76 10.67 57.76 9.81L57.76 9.81L57.76 9.81Q57.76 8.99 58.07 8.29L58.07 8.29L58.07 8.29Q58.38 7.59 58.91 7.08L58.91 7.08L58.91 7.08Q59.44 6.58 60.15 6.30L60.15 6.30L60.15 6.30Q60.86 6.02 61.64 6.02ZM61.64 6.69L61.64 6.69L61.64 6.69Q61.12 6.69 60.70 6.92L60.70 6.92L60.70 6.92Q60.27 7.14 59.97 7.55L59.97 7.55L59.97 7.55Q59.67 7.97 59.51 8.55L59.51 8.55L59.51 8.55Q59.35 9.13 59.35 9.83L59.35 9.83L59.35 9.83Q59.35 10.56 59.51 11.14L59.51 11.14L59.51 11.14Q59.67 11.73 59.97 12.14L59.97 12.14L59.97 12.14Q60.27 12.56 60.69 12.78L60.69 12.78L60.69 12.78Q61.11 13.01 61.64 13.01L61.64 13.01L61.64 13.01Q62.17 13.01 62.61 12.78L62.61 12.78L62.61 12.78Q63.04 12.56 63.35 12.14L63.35 12.14L63.35 12.14Q63.66 11.72 63.83 11.13L63.83 11.13L63.83 11.13Q63.99 10.54 63.99 9.83L63.99 9.83L63.99 9.83Q63.99 9.13 63.83 8.55L63.83 8.55L63.83 8.55Q63.66 7.98 63.35 7.57L63.35 7.57L63.35 7.57Q63.04 7.15 62.61 6.92L62.61 6.92L62.61 6.92Q62.17 6.69 61.64 6.69ZM69.34 9.56L69.34 11.34L69.34 11.34Q69.34 11.93 69.37 12.26L69.37 12.26L69.37 12.26Q69.40 12.60 69.52 12.78L69.52 12.78L69.52 12.78Q69.64 12.95 69.86 13.01L69.86 13.01L69.86 13.01Q70.08 13.06 70.49 13.09L70.49 13.09L70.49 13.58L66.77 13.58L66.77 13.09L66.77 13.09Q67.17 13.06 67.41 13.01L67.41 13.01L67.41 13.01Q67.65 12.95 67.77 12.78L67.77 12.78L67.77 12.78Q67.90 12.61 67.94 12.30L67.94 12.30L67.94 12.30Q67.97 11.98 67.97 11.45L67.97 11.45L67.97 9.66L67.97 9.66Q67.97 8.86 67.95 8.33L67.95 8.33L67.95 8.33Q67.93 7.80 67.87 7.60L67.87 7.60L67.87 7.60Q67.83 7.42 67.77 7.31L67.77 7.31L67.77 7.31Q67.72 7.21 67.59 7.15L67.59 7.15L67.59 7.15Q67.47 7.08 67.26 7.06L67.26 7.06L67.26 7.06Q67.06 7.04 66.74 7.04L66.74 7.04L66.74 6.55L69.02 6.02L69.20 7.42L69.27 7.42L69.27 7.42Q69.90 6.71 70.59 6.36L70.59 6.36L70.59 6.36Q71.29 6.02 72.13 6.02L72.13 6.02L72.13 6.02Q73.01 6.02 73.61 6.38L73.61 6.38L73.61 6.38Q74.21 6.73 74.45 7.41L74.45 7.41L74.51 7.41L74.51 7.41Q75.03 6.75 75.77 6.38L75.77 6.38L75.77 6.38Q76.51 6.02 77.35 6.02L77.35 6.02L77.35 6.02Q78.01 6.02 78.55 6.24L78.55 6.24L78.55 6.24Q79.09 6.45 79.37 6.83L79.37 6.83L79.37 6.83Q79.62 7.15 79.72 7.68L79.72 7.68L79.72 7.68Q79.83 8.20 79.83 9.11L79.83 9.11L79.83 11.34L79.83 11.34Q79.83 11.91 79.86 12.25L79.86 12.25L79.86 12.25Q79.90 12.59 80.01 12.77L80.01 12.77L80.01 12.77Q80.12 12.95 80.35 13.01L80.35 13.01L80.35 13.01Q80.58 13.06 80.99 13.09L80.99 13.09L80.99 13.58L77.27 13.58L77.27 13.09L77.27 13.09Q77.66 13.08 77.90 13.01L77.90 13.01L77.90 13.01Q78.13 12.95 78.26 12.78L78.26 12.78L78.26 12.78Q78.39 12.60 78.42 12.29L78.42 12.29L78.42 12.29Q78.46 11.98 78.46 11.45L78.46 11.45L78.46 9.69L78.46 9.69Q78.46 8.89 78.37 8.34L78.37 8.34L78.37 8.34Q78.29 7.78 78.09 7.44L78.09 7.44L78.09 7.44Q77.90 7.10 77.58 6.94L77.58 6.94L77.58 6.94Q77.27 6.79 76.82 6.79L76.82 6.79L76.82 6.79Q76.20 6.79 75.66 7.13L75.66 7.13L75.66 7.13Q75.12 7.48 74.82 8.05L74.82 8.05L74.82 8.05Q74.75 8.19 74.70 8.32L74.70 8.32L74.70 8.32Q74.65 8.46 74.62 8.62L74.62 8.62L74.62 8.62Q74.59 8.78 74.59 9.00L74.59 9.00L74.59 9.00Q74.58 9.23 74.58 9.56L74.58 9.56L74.58 11.34L74.58 11.34Q74.58 11.91 74.61 12.25L74.61 12.25L74.61 12.25Q74.63 12.59 74.75 12.77L74.75 12.77L74.75 12.77Q74.87 12.95 75.11 13.01L75.11 13.01L75.11 13.01Q75.35 13.06 75.75 13.09L75.75 13.09L75.75 13.58L72.03 13.58L72.03 13.09L72.03 13.09Q72.42 13.06 72.66 13.01L72.66 13.01L72.66 13.01Q72.90 12.95 73.02 12.78L73.02 12.78L73.02 12.78Q73.14 12.61 73.17 12.30L73.17 12.30L73.17 12.30Q73.21 11.98 73.21 11.45L73.21 11.45L73.21 9.69L73.21 9.69Q73.21 8.88 73.12 8.32L73.12 8.32L73.12 8.32Q73.04 7.77 72.85 7.43L72.85 7.43L72.85 7.43Q72.66 7.08 72.35 6.94L72.35 6.94L72.35 6.94Q72.04 6.79 71.60 6.79L71.60 6.79L71.60 6.79Q70.97 6.79 70.41 7.13L70.41 7.13L70.41 7.13Q69.86 7.48 69.58 8.05L69.58 8.05L69.58 8.05Q69.51 8.19 69.46 8.32L69.46 8.32L69.46 8.32Q69.41 8.46 69.38 8.62L69.38 8.62L69.38 8.62Q69.36 8.78 69.35 9.00L69.35 9.00L69.35 9.00Q69.34 9.23 69.34 9.56L69.34 9.56Z"></path></g><!----><!----></svg>